<?xml version="1.0" encoding="UTF-8"?>
<svg xmlns="http://www.w3.org/2000/svg" xmlns:xlink="http://www.w3.org/1999/xlink" width="50px" height="50px" viewBox="0 0 50 50" version="1.1">
<g id="surface1">
<path style=" stroke:none;fill-rule:nonzero;fill:rgb(0%,0%,0%);fill-opacity:1;" d="M 25 34.375 C 23.386719 34.375 21.773438 33.84375 20.394531 32.773438 L 0 16.914062 L 0 39.0625 C 0 41.648438 2.097656 43.75 4.6875 43.75 L 45.3125 43.75 C 47.902344 43.75 50 41.652344 50 39.0625 L 50 16.914062 L 29.609375 32.78125 C 28.234375 33.847656 26.609375 34.375 25 34.375 Z M 1.589844 14.191406 L 22.3125 30.3125 C 23.894531 31.542969 26.109375 31.542969 27.691406 30.3125 L 48.414062 14.1875 C 49.328125 13.410156 50 12.207031 50 10.9375 C 50 8.347656 47.898438 6.25 45.3125 6.25 L 4.6875 6.25 C 2.097656 6.25 0 8.347656 0 10.9375 C 0 12.207031 0.585938 13.410156 1.589844 14.191406 Z M 1.589844 14.191406 "/>
</g>
</svg>
