<?xml version="1.0" encoding="UTF-8"?>
<svg xmlns="http://www.w3.org/2000/svg" xmlns:xlink="http://www.w3.org/1999/xlink" width="50px" height="50px" viewBox="0 0 50 57" version="1.1">
<g id="surface1">
<path style=" stroke:none;fill-rule:nonzero;fill:rgb(0%,0%,0%);fill-opacity:1;" d="M 25.011719 15.695312 C 17.914062 15.695312 12.1875 21.410156 12.1875 28.488281 C 12.1875 35.570312 17.914062 41.28125 25.011719 41.28125 C 32.109375 41.28125 37.835938 35.570312 37.835938 28.488281 C 37.835938 21.410156 32.109375 15.695312 25.011719 15.695312 Z M 25.011719 36.804688 C 20.425781 36.804688 16.675781 33.074219 16.675781 28.488281 C 16.675781 23.902344 20.414062 20.171875 25.011719 20.171875 C 29.609375 20.171875 33.347656 23.902344 33.347656 28.488281 C 33.347656 33.074219 29.597656 36.804688 25.011719 36.804688 Z M 41.351562 15.175781 C 41.351562 16.832031 40.011719 18.15625 38.359375 18.15625 C 36.695312 18.15625 35.367188 16.820312 35.367188 15.175781 C 35.367188 13.527344 36.707031 12.191406 38.359375 12.191406 C 40.011719 12.191406 41.351562 13.527344 41.351562 15.175781 Z M 49.84375 18.203125 C 49.652344 14.207031 48.738281 10.664062 45.804688 7.75 C 42.878906 4.832031 39.332031 3.917969 35.324219 3.71875 C 31.195312 3.484375 18.816406 3.484375 14.6875 3.71875 C 10.691406 3.90625 7.144531 4.820312 4.207031 7.738281 C 1.273438 10.652344 0.367188 14.195312 0.167969 18.191406 C -0.0664062 22.308594 -0.0664062 34.65625 0.167969 38.777344 C 0.355469 42.773438 1.273438 46.3125 4.207031 49.230469 C 7.144531 52.144531 10.679688 53.058594 14.6875 53.257812 C 18.816406 53.492188 31.195312 53.492188 35.324219 53.257812 C 39.332031 53.070312 42.878906 52.15625 45.804688 49.230469 C 48.726562 46.3125 49.644531 42.773438 49.84375 38.777344 C 50.078125 34.65625 50.078125 22.320312 49.84375 18.203125 Z M 44.507812 43.195312 C 43.636719 45.378906 41.953125 47.058594 39.753906 47.9375 C 36.460938 49.242188 28.648438 48.941406 25.011719 48.941406 C 21.371094 48.941406 13.550781 49.230469 10.269531 47.9375 C 8.082031 47.070312 6.394531 45.386719 5.511719 43.195312 C 4.207031 39.910156 4.507812 32.117188 4.507812 28.488281 C 4.507812 24.859375 4.21875 17.054688 5.511719 13.78125 C 6.382812 11.601562 8.070312 9.917969 10.269531 9.039062 C 13.558594 7.738281 21.371094 8.039062 25.011719 8.039062 C 28.648438 8.039062 36.472656 7.75 39.753906 9.039062 C 41.941406 9.910156 43.628906 11.589844 44.507812 13.78125 C 45.816406 17.066406 45.511719 24.859375 45.511719 28.488281 C 45.511719 32.117188 45.816406 39.921875 44.507812 43.195312 Z M 44.507812 43.195312 "/>
</g>
</svg>
