<?xml version="1.0" encoding="UTF-8"?>
<svg xmlns="http://www.w3.org/2000/svg" xmlns:xlink="http://www.w3.org/1999/xlink" width="50px" height="50px" viewBox="0 0 50 57" version="1.1">
<g id="surface1">
<path style=" stroke:none;fill-rule:nonzero;fill:rgb(0%,0%,0%);fill-opacity:1;" d="M 46.429688 3.5625 L 3.558594 3.5625 C 1.597656 3.5625 0 5.175781 0 7.160156 L 0 49.839844 C 0 51.824219 1.597656 53.4375 3.558594 53.4375 L 46.429688 53.4375 C 48.394531 53.4375 50 51.824219 50 49.839844 L 50 7.160156 C 50 5.175781 48.394531 3.5625 46.429688 3.5625 Z M 15.113281 46.3125 L 7.699219 46.3125 L 7.699219 22.511719 L 15.121094 22.511719 L 15.121094 46.3125 Z M 11.40625 19.257812 C 9.027344 19.257812 7.109375 17.332031 7.109375 14.972656 C 7.109375 12.613281 9.027344 10.6875 11.40625 10.6875 C 13.773438 10.6875 15.703125 12.613281 15.703125 14.972656 C 15.703125 17.34375 13.785156 19.257812 11.40625 19.257812 Z M 42.890625 46.3125 L 35.480469 46.3125 L 35.480469 34.734375 C 35.480469 31.972656 35.425781 28.421875 31.628906 28.421875 C 27.769531 28.421875 27.175781 31.429688 27.175781 34.535156 L 27.175781 46.3125 L 19.765625 46.3125 L 19.765625 22.511719 L 26.875 22.511719 L 26.875 25.761719 L 26.976562 25.761719 C 27.96875 23.890625 30.390625 21.921875 33.996094 21.921875 C 41.496094 21.921875 42.890625 26.851562 42.890625 33.265625 Z M 42.890625 46.3125 "/>
</g>
</svg>
