<?xml version="1.0" encoding="UTF-8"?>
<svg xmlns="http://www.w3.org/2000/svg" xmlns:xlink="http://www.w3.org/1999/xlink" width="50px" height="50px" viewBox="0 0 50 51" version="1.1">
<g id="surface1">
<path style=" stroke:none;fill-rule:nonzero;fill:rgb(0%,0%,0%);fill-opacity:1;" d="M 25 0.796875 C 11.191406 0.796875 0 11.855469 0 25.5 C 0 39.144531 11.191406 50.203125 25 50.203125 C 38.808594 50.203125 50 39.144531 50 25.5 C 50 11.855469 38.808594 0.796875 25 0.796875 Z M 36.589844 17.597656 C 36.210938 21.503906 34.582031 30.980469 33.753906 35.355469 C 33.40625 37.207031 32.714844 37.828125 32.046875 37.890625 C 30.59375 38.023438 29.492188 36.941406 28.085938 36.03125 C 25.886719 34.605469 24.644531 33.71875 22.507812 32.328125 C 20.039062 30.722656 21.640625 29.835938 23.046875 28.394531 C 23.414062 28.015625 29.808594 22.265625 29.933594 21.746094 C 29.949219 21.679688 29.964844 21.4375 29.816406 21.308594 C 29.671875 21.179688 29.457031 21.222656 29.300781 21.257812 C 29.078125 21.308594 25.566406 23.605469 18.753906 28.144531 C 17.757812 28.824219 16.855469 29.152344 16.042969 29.136719 C 15.152344 29.117188 13.433594 28.636719 12.15625 28.226562 C 10.59375 27.722656 9.347656 27.457031 9.457031 26.605469 C 9.511719 26.160156 10.132812 25.703125 11.316406 25.238281 C 18.605469 22.101562 23.464844 20.03125 25.894531 19.035156 C 32.839844 16.179688 34.28125 15.683594 35.222656 15.667969 C 35.429688 15.664062 35.890625 15.714844 36.191406 15.953125 C 36.390625 16.125 36.515625 16.363281 36.546875 16.625 C 36.597656 16.945312 36.609375 17.273438 36.589844 17.597656 Z M 36.589844 17.597656 "/>
</g>
</svg>
