<?xml version="1.0" encoding="UTF-8"?>
<svg xmlns="http://www.w3.org/2000/svg" xmlns:xlink="http://www.w3.org/1999/xlink" width="50px" height="50px" viewBox="0 0 50 57" version="1.1">
<g id="surface1">
<path style=" stroke:none;fill-rule:nonzero;fill:rgb(0%,0%,0%);fill-opacity:1;" d="M 3.515625 7.066406 C 0 10.574219 0 16.21875 0 27.503906 L 0 29.496094 C 0 40.78125 0 46.425781 3.515625 49.933594 C 7.027344 53.4375 12.6875 53.4375 24 53.4375 L 26 53.4375 C 37.3125 53.4375 42.972656 53.4375 46.484375 49.933594 C 50 46.425781 50 40.78125 50 29.496094 L 50 27.503906 C 50 16.21875 50 10.574219 46.484375 7.066406 C 42.972656 3.5625 37.3125 3.5625 26 3.5625 L 24 3.5625 C 12.6875 3.5625 7.027344 3.5625 3.515625 7.066406 Z M 8.4375 18.734375 L 14.144531 18.734375 C 14.332031 28.25 18.542969 32.28125 21.875 33.113281 L 21.875 18.734375 L 27.25 18.734375 L 27.25 26.941406 C 30.542969 26.589844 34 22.847656 35.167969 18.734375 L 40.542969 18.734375 C 40.101562 20.867188 39.226562 22.886719 37.96875 24.667969 C 36.710938 26.449219 35.097656 27.953125 33.230469 29.082031 C 35.3125 30.113281 37.15625 31.574219 38.628906 33.371094 C 40.105469 35.164062 41.183594 37.253906 41.792969 39.492188 L 35.875 39.492188 C 35.328125 37.546875 34.21875 35.804688 32.6875 34.484375 C 31.152344 33.164062 29.261719 32.324219 27.25 32.074219 L 27.25 39.492188 L 26.605469 39.492188 C 15.207031 39.492188 8.707031 31.699219 8.4375 18.734375 Z M 8.4375 18.734375 "/>
</g>
</svg>
